<svg width="146" height="143" viewBox="0 0 146 143" fill="none" xmlns="http://www.w3.org/2000/svg">
<g clip-path="url(#clip0_9_35)">
<path d="M94.3202 31.6164C95.6768 33.6365 95.1035 36.3509 93.0401 37.679C92.0152 38.3389 91.0507 39.1172 90.1735 39.993C89.2981 40.8671 88.1399 41.3054 86.9808 41.3054C85.8513 41.3054 84.7208 40.8889 83.8505 40.0531C82.0875 38.3602 82.0601 35.5886 83.7888 33.8627C85.1115 32.5424 86.5711 31.3649 88.1277 30.363C90.1917 29.0351 92.9639 29.5963 94.3202 31.6164ZM133.194 83.4271C132.746 83.8753 88.8464 127.7 88.8464 127.7C84.6186 131.92 78.9908 134.245 73 134.245C67.0092 134.245 61.3814 131.92 57.1536 127.7L12.8057 83.4271C-4.26857 66.3821 -4.26857 38.6474 12.8057 21.6023C21.1044 13.3177 32.1444 8.7551 43.8924 8.7551C54.7288 8.7551 64.964 12.6377 73 19.7422C81.0363 12.6377 91.2709 8.7551 102.107 8.7551C113.855 8.7551 124.896 13.3177 133.194 21.602C150.269 38.6474 150.269 66.3821 133.194 83.4271ZM126.81 27.7327C120.207 21.1406 111.434 17.5102 102.108 17.5102C92.7812 17.5102 84.0081 21.1404 77.405 27.7324C77.0707 28.0662 76.7707 28.4716 76.3509 28.8346C74.1054 30.7765 71.4727 30.679 69.6495 28.8346C69.2597 28.4401 68.9296 28.0662 68.5953 27.7324C61.9919 21.1406 53.2191 17.5102 43.8924 17.5102C34.5659 17.5102 25.7931 21.1404 19.1898 27.7324C5.50152 41.3973 5.50152 63.6318 19.1898 77.2968C19.5971 77.7033 63.5377 121.57 63.5377 121.57C66.0701 124.097 69.4305 125.49 73 125.49C76.5696 125.49 79.9299 124.097 82.4623 121.57L126.81 77.297C140.498 63.6321 140.498 41.3976 126.81 27.7327ZM120.426 33.863C117.752 31.1933 114.623 29.1805 111.127 27.8806C108.819 27.0229 106.237 28.1587 105.36 30.419C104.484 32.679 105.644 35.2072 107.953 36.0655C110.231 36.9124 112.279 38.2341 114.042 39.9933C120.958 46.8976 120.958 58.1318 114.042 65.0361L98.3548 80.6964C96.6258 82.4226 96.6532 85.1941 98.4162 86.8868C99.2866 87.7223 100.417 88.1391 101.547 88.1391C102.705 88.1391 103.864 87.7007 104.739 86.8267L120.426 71.1664C130.728 60.8818 130.728 44.1476 120.426 33.863Z" fill="#CD6D6D"/>
</g>
<defs>
<clipPath id="clip0_9_35">
<rect width="146" height="143" fill="white"/>
</clipPath>
</defs>
</svg>
